<svg width="88" height="59" viewBox="0 0 88 59" fill="none" xmlns="http://www.w3.org/2000/svg">
<path d="M10.0764 1.75901C10.6276 -0.177714 13.3724 -0.177713 13.9236 1.75901L14.435 3.5558C14.761 4.70133 16.0097 5.30982 17.1128 4.86068L18.8114 4.16909C20.7302 3.3878 22.4251 5.6812 21.1149 7.28617L20.4551 8.09443C19.635 9.09903 19.9732 10.6064 21.1437 11.1645L22.0599 11.6013C23.9556 12.5051 23.355 15.3465 21.2556 15.4058L19.8903 15.4443C18.6409 15.4796 17.7296 16.6395 17.991 17.8618L18.288 19.2504C18.7131 21.2381 16.2463 22.519 14.865 21.0279L13.4672 19.5189C12.6757 18.6644 11.3243 18.6644 10.5328 19.5189L9.13498 21.0279C7.75368 22.519 5.28687 21.2381 5.71199 19.2504L6.00899 17.8618C6.27041 16.6395 5.35912 15.4796 4.10967 15.4443L2.74439 15.4058C0.645021 15.3465 0.0443701 12.5051 1.94015 11.6013L2.85626 11.1645C4.02684 10.6064 4.36496 9.09903 3.54489 8.09443L2.8851 7.28617C1.57494 5.68119 3.26978 3.3878 5.18865 4.16909L6.8872 4.86068C7.99028 5.30982 9.239 4.70133 9.56502 3.5558L10.0764 1.75901Z" fill="#FFD242"/>
<path fill-rule="evenodd" clip-rule="evenodd" d="M19.8059 48.5395L22.576 40.3188H39.8561L42.6262 48.5395H45.2889C43.7469 45.1962 43 41.5069 43 37.5235C43 32.914 44.0001 28.6984 46.0751 24.9569L37.8115 2H24.7525L8 48.5395H19.8059ZM31.216 14.5299L36.9541 31.5678H25.5439L31.216 14.5299Z" fill="url(#paint0_linear_147_59)"/>
<path d="M46 37.5235C46 33.3551 46.9016 29.6476 48.7047 26.401C50.5079 23.1144 53.0123 20.5692 56.2179 18.7656C59.4636 16.9219 63.13 16 67.2172 16C72.2259 16 76.5135 17.3227 80.0797 19.968C83.6459 22.6134 86.0301 26.2206 87.2322 30.7899H75.9324C75.091 29.0263 73.8889 27.6836 72.3261 26.7617C70.8034 25.8399 69.0604 25.3789 67.097 25.3789C63.9314 25.3789 61.3669 26.4812 59.4035 28.6856C57.44 30.8901 56.4583 33.836 56.4583 37.5235C56.4583 41.2109 57.44 44.1569 59.4035 46.3613C61.3669 48.5658 63.9314 49.668 67.097 49.668C69.0604 49.668 70.8034 49.2071 72.3261 48.2852C73.8889 47.3634 75.091 46.0207 75.9324 44.2571H87.2322C86.0301 48.8263 83.6459 52.4336 80.0797 55.0789C76.5135 57.6842 72.2259 58.9868 67.2172 58.9868C63.13 58.9868 59.4636 58.085 56.2179 56.2814C53.0123 54.4377 50.5079 51.8925 48.7047 48.646C46.9016 45.3994 46 41.6919 46 37.5235Z" fill="url(#paint1_linear_147_59)"/>
<defs>
<linearGradient id="paint0_linear_147_59" x1="6.17668" y1="25.2698" x2="46.0751" y2="25.2698" gradientUnits="userSpaceOnUse">
<stop offset="0.0260229" stop-color="#E70FAA"/>
<stop offset="1" stop-color="#6301FF"/>
</linearGradient>
<linearGradient id="paint1_linear_147_59" x1="44.0255" y1="37.4935" x2="87.2322" y2="37.4935" gradientUnits="userSpaceOnUse">
<stop offset="0.0260229" stop-color="#E70FAA"/>
<stop offset="1" stop-color="#6301FF"/>
</linearGradient>
</defs>
</svg>
